
<svg width="90px" height="54px" viewBox="0 0 90 54" version="1.1" xmlns="http://www.w3.org/2000/svg" xmlns:xlink="http://www.w3.org/1999/xlink">
    <!-- Generator: Sketch 62 (91390) - https://sketch.com -->
    <title>Together Tech Monogram</title>
    <g id="Page-1" stroke="none" strokeWidth="1" fill="none" fillRule="evenodd">
        <g id="Group-2" fill="currentColor">
            <path d="M34.9052279,10.6386337 C34.8092279,10.6326337 4.33922786,10.6146337 3.91122786,10.6386337 C3.38022786,10.6696337 2.87722786,10.7796337 2.47522786,10.9566337 C1.29322786,11.4806337 0.432227856,12.4226337 0.103227856,13.7796337 C-0.153772144,14.8416337 0.104227856,15.9266337 0.491227856,16.6336337 C0.904227856,17.3866337 1.50422786,17.9426337 2.26222786,18.3256337 C2.63022786,18.5126337 3.06922786,18.6696337 3.58422786,18.7276337 C4.09522786,18.7856337 4.70222786,18.7496337 5.29422786,18.7496337 C14.9712279,18.7496337 24.6602279,18.7496337 34.3052279,18.7496337 C34.4712279,18.7496337 34.5372279,18.7086337 34.6472279,18.6586337 C36.6592279,17.7326337 38.5102279,16.8166337 40.4912279,15.8426337 C40.1762279,15.3236337 39.7412279,14.8386337 39.3132279,14.3706337 C38.4802279,13.4596337 37.5942279,12.6136337 36.6382279,11.8366337 C36.1492279,11.4396337 35.6482279,11.0656337 35.1262279,10.7356337 C35.0552279,10.6926337 34.9992279,10.6436337 34.9052279,10.6386337 M45.0212279,7.83663367 C43.8092279,6.44963367 42.4842279,5.18363367 41.0012279,4.02863367 C40.2742279,3.46363367 39.4872279,2.93663367 38.6522279,2.46363367 C36.5582279,1.27563367 34.2422279,0.393633673 31.2502279,0.0846336727 C30.6742279,0.0246336727 29.9562279,-0.0193663273 29.3492279,0.00863367271 C29.1042279,0.0206336727 28.8682279,0.0216336727 28.6352279,0.0306336727 C27.9282279,0.0636336727 27.2862279,0.158633673 26.6592279,0.274633673 C25.0062279,0.579633673 23.6052279,1.16863367 22.3342279,1.86263367 C21.6992279,2.20963367 21.0942279,2.60363367 20.5482279,3.03363367 C18.3752279,4.74163367 16.6712279,6.91563367 15.6382279,9.75963367 C15.6242279,9.79963367 15.5952279,9.84363367 15.6082279,9.88863367 C18.6492279,9.88863367 21.6602279,9.88863367 24.6982279,9.88863367 C24.8042279,9.88863367 24.9242279,9.90763367 24.9942279,9.88863367 C25.0542279,9.87363367 25.1562279,9.75063367 25.2072279,9.70663367 C25.7102279,9.27563367 26.2772279,8.92663367 26.9172279,8.64963367 C27.6472279,8.33463367 28.5232279,8.10863367 29.5552279,8.13163367 C30.6182279,8.15763367 31.5082279,8.29163367 32.3132279,8.53463367 C33.1182279,8.77763367 33.8312279,9.09963367 34.5402279,9.47763367 C35.9062279,10.2036337 37.0852279,11.1566337 38.1812279,12.1666337 C38.7322279,12.6746337 39.2352279,13.2236337 39.7542279,13.7556337 C40.2752279,14.2896337 40.7582279,14.8696337 41.1682279,15.5106337 C43.5102279,14.3826337 45.7632279,13.1016337 48.2602279,12.1266337 C48.1552279,11.9226337 48.1212279,11.9046337 47.9932279,11.7106337 C47.8632279,11.5166337 47.7222279,11.3256337 47.5902279,11.1336337 C46.7912279,9.97963367 45.9312279,8.87763367 45.0212279,7.83663367 M70.8172279,21.6086337 C71.8922279,19.5686337 72.7042279,17.0376337 72.5272279,13.8556337 C72.4432279,12.3636337 72.1492279,11.0676337 71.7442279,9.87963367 C71.3392279,8.69263367 70.8232279,7.64163367 70.1852279,6.68163367 C69.2322279,5.24363367 68.1142279,3.99963367 66.7502279,2.97963367 C65.3802279,1.95463367 63.8792279,1.12763367 62.0152279,0.578633673 C61.1122279,0.311633673 60.0962279,0.113633673 58.9912279,0.0386336727 C58.6352279,0.0156336727 58.1692279,-0.00836632729 57.8132279,0.00863367271 C57.4132279,0.0276336727 57.0402279,0.0396336727 56.6792279,0.0846336727 C55.6052279,0.218633673 54.6642279,0.490633673 53.7532279,0.807633673 C52.5532279,1.22163367 51.4402279,1.73163367 50.3632279,2.28163367 C49.2842279,2.83463367 48.2272279,3.39263367 47.1942279,3.97663367 C46.1572279,4.56263367 45.1322279,5.15563367 44.0852279,5.73263367 C44.1772279,5.85963367 44.2952279,5.96263367 44.4052279,6.07463367 C45.1902279,6.86963367 45.9342279,7.72163367 46.6242279,8.60563367 C47.4162279,9.61963367 48.2002279,10.6546337 48.9032279,11.7516337 C50.1282279,11.1716337 51.2582279,10.5146337 52.4302279,9.86663367 C53.5932279,9.22363367 54.7942279,8.59563367 56.2602279,8.28563367 C57.0432279,8.12063367 57.9482279,8.09763367 58.7452279,8.18763367 C59.5162279,8.27363367 60.2312279,8.54063367 60.8052279,8.83363367 C62.0132279,9.44863367 62.9242279,10.3286337 63.5792279,11.4786337 C63.9052279,12.0496337 64.1672279,12.7076337 64.3082279,13.4556337 C64.4572279,14.2396337 64.4522279,15.1606337 64.3002279,15.9256337 C64.1542279,16.6726337 63.9132279,17.3266337 63.5782279,17.9086337 C63.2492279,18.4816337 62.8502279,19.0056337 62.3932279,19.4366337 C61.4662279,20.3066337 60.2912279,20.9726337 58.7372279,21.1926337 C56.9792279,21.4396337 55.4282279,20.9206337 54.2372279,20.3946337 C54.0522279,20.4266337 53.8572279,20.5116337 53.6672279,20.5766337 C52.4142279,20.9986337 51.2022279,21.4906337 50.0422279,21.9906337 C48.6922279,22.5716337 47.3882279,23.1916337 46.0992279,23.7996337 C47.5842279,25.5136337 49.3082279,26.9076337 51.4562279,27.9486337 C53.0462279,28.7196337 54.9352279,29.2606337 57.1792279,29.3626337 C57.9322279,29.3966337 58.7182279,29.3526337 59.4662279,29.2866337 C60.1522279,29.2266337 60.8302279,29.0886337 61.4732279,28.9216337 C63.3772279,28.4296337 64.9682279,27.6536337 66.3532279,26.6646337 C68.1922279,25.3506337 69.7472279,23.6346337 70.8172279,21.6086337 M90.0002279,14.6996337 C90.0002279,13.8116337 89.7722279,13.1196337 89.4452279,12.5336337 C89.1192279,11.9486337 88.6912279,11.4766337 88.1612279,11.0956337 C87.6352279,10.7196337 87.0092279,10.4246337 86.2302279,10.3066337 C85.8292279,10.2446337 85.3832279,10.2526337 84.9222279,10.2526337 C80.8432279,10.2526337 76.7262279,10.2526337 72.6552279,10.2526337 C72.6452279,10.2526337 72.6452279,10.2736337 72.6552279,10.2756337 C73.0332279,11.5626337 73.2862279,13.0436337 73.2862279,14.7066337 C73.2862279,16.3696337 73.0202279,17.8416337 72.6402279,19.1216337 C76.2522279,19.1216337 79.9082279,19.1226337 83.5322279,19.1216337 C84.4712279,19.1216337 85.4012279,19.1746337 86.2072279,19.0766337 C86.9692279,18.9836337 87.6332279,18.6596337 88.1462279,18.2936337 C88.6632279,17.9236337 89.1142279,17.4416337 89.4382279,16.8646337 C89.7642279,16.2836337 90.0002279,15.5806337 90.0002279,14.6996337" id="Shape" fillRule="nonzero"></path>
            <path d="M25,29.3165401 C25.3286274,29.4002667 25.667332,29.4732355 26.0173076,29.5335354 C27.2023076,29.7375354 28.5603076,29.8555354 29.8863076,29.6935354 C31.1083076,29.5445354 32.2063076,29.2335354 33.2533076,28.8805354 C34.2933076,28.5285354 35.2893076,28.1315354 36.2553076,27.7015354 C40.1163076,25.9875354 43.7413076,24.0395354 47.5803076,22.3135354 C49.5073076,21.4465354 51.4823076,20.6305354 53.5833076,19.9645354 C54.6453076,19.6285354 55.7693076,19.3495354 57.0053076,19.2035354 C57.6453076,19.1295354 58.3403076,19.1505354 59.0403076,19.1505354 C59.7693076,19.1505354 60.5183076,19.1505354 61.2233076,19.1505354 C61.6803076,18.6765354 62.0793076,18.1135354 62.3773076,17.4475354 C62.6683076,16.7975354 62.8803076,16.0135354 62.8803076,15.0855354 C62.8803076,14.1685354 62.6683076,13.4045354 62.3693076,12.7295354 C62.1213076,12.1675354 61.7843076,11.6455354 61.3903076,11.2095354 C61.3283076,11.1415354 61.2443076,11.0365354 61.1923076,11.0255354 C61.0683076,11.0015354 60.8933076,11.0045354 60.7363076,11.0045354 C59.4213076,11.0045354 58.0243076,10.9725354 56.8153076,11.0785354 C56.5933076,11.0995354 56.3723076,11.1155354 56.1613076,11.1405354 C53.1653076,11.4795354 50.6893076,12.2985354 48.2573076,13.2235354 C46.2013076,14.0045354 44.2153076,14.9035354 42.2833076,15.8075354 C41.6343076,16.1115354 41.0013076,16.4375354 40.3603076,16.7425354 C39.0783076,17.3505354 37.8043076,17.9835354 36.5223076,18.6115354 C35.2433076,19.2385354 33.9423076,19.8585354 32.6153076,20.4135354 C31.6443076,20.8195354 30.5973076,21.2865354 29.4613076,21.5375354 C29.0483076,21.6305354 28.6553076,21.6635354 28.1693076,21.6305354 C27.2973076,21.5685354 26.5573076,21.3515354 25.9043076,21.0445354 C25.6880578,20.9429519 25.371937,20.6688675 25,20.4135354 C25.0224702,21.3924682 24.9979882,28.1120127 25,29.3165401 Z" id="Path" transform="translate(43.940154, 20.384710) rotate(-2.000000) translate(-43.940154, -20.384710) "></path>
            <path d="M34.9052279,29.0121292 C34.8092279,29.0061292 4.33922786,28.9881292 3.91122786,29.0121292 C3.38022786,29.0431292 2.87722786,29.1531292 2.47522786,29.3301292 C1.29322786,29.8541292 0.432227856,30.7961292 0.103227856,32.1531292 C-0.153772144,33.2151292 0.104227856,34.3001292 0.491227856,35.0071292 C0.904227856,35.7601292 1.50422786,36.3161292 2.26222786,36.6991292 C2.63022786,36.8861292 3.06922786,37.0431292 3.58422786,37.1011292 C4.09522786,37.1591292 4.70222786,37.1231292 5.29422786,37.1231292 C14.9712279,37.1231292 24.6602279,37.1231292 34.3052279,37.1231292 C34.4712279,37.1231292 34.5372279,37.0821292 34.6472279,37.0321292 C36.6592279,36.1061292 38.5102279,35.1901292 40.4912279,34.2161292 C40.1762279,33.6971292 39.7412279,33.2121292 39.3132279,32.7441292 C38.4802279,31.8331292 37.5942279,30.9871292 36.6382279,30.2101292 C36.1492279,29.8131292 35.6482279,29.4391292 35.1262279,29.1091292 C35.0552279,29.0661292 34.9992279,29.0171292 34.9052279,29.0121292" id="Path" transform="translate(20.245614, 33.067086) rotate(-90.000000) translate(-20.245614, -33.067086) "></path>
            <path d="M72.780126,18.6707102 L75.1231292,18.8435672 L75.1231292,18.8435672 L75.1231292,47.8545672 C75.1231292,48.4465672 75.1591292,49.0535672 75.1011292,49.5645672 C75.0431292,50.0795672 74.8861292,50.5185672 74.6991292,50.8865672 C74.3161292,51.6445672 73.7601292,52.2445672 73.0071292,52.6575672 C72.3001292,53.0445672 71.2151292,53.3025672 70.1531292,53.0455672 C68.7961292,52.7165672 67.8541292,51.8555672 67.3301292,50.6735672 C67.1531292,50.2715672 67.0431292,49.7685672 67.0121292,49.2375672 C66.9963571,48.9562986 66.9987237,35.7007264 67.003903,26.617718 L67.1747,26.5007288 L67.1747,26.5007288 C69.0137,25.1867288 70.5687,23.4707288 71.6387,21.4447288 C72.0803465,20.6066274 72.4776027,19.6856528 72.780126,18.6707102 Z" id="Combined-Shape"></path>
        </g>
    </g>
</svg>